HIERARCHY
ROOT Hips
{
	OFFSET 51.793900 -33.208015 84.696289
	CHANNELS 6 Xposition Yposition Zposition Xrotation Yrotation Zrotation
	JOINT spine
	{
		OFFSET 0.000000 -0.342407 5.954384
		CHANNELS 3 Xrotation Yrotation Zrotation
		JOINT spine1
		{
			OFFSET 0.000000 0.000000 8.856018
			CHANNELS 3 Xrotation Yrotation Zrotation
			JOINT spine2
			{
				OFFSET 0.000000 -0.000004 8.485672
				CHANNELS 3 Xrotation Yrotation Zrotation
				JOINT Neck
				{
					OFFSET 0.000000 -1.038704 21.786308
					CHANNELS 3 Xrotation Yrotation Zrotation
					JOINT Head
					{
						OFFSET 0.000000 0.000000 6.582199
						CHANNELS 3 Xrotation Yrotation Zrotation
						End Site
						{
							OFFSET 0.000000 5.254358 15.932602
						}
					}
				}
				JOINT RightShoulder
				{
					OFFSET -3.573071 0.497524 9.163864
					CHANNELS 3 Xrotation Yrotation Zrotation
					JOINT RightArm
					{
						OFFSET 0.000000 -0.000004 12.019203
						CHANNELS 3 Xrotation Yrotation Zrotation
						JOINT RightArmRoll
						{
							OFFSET 0.000000 0.000000 6.067551
							CHANNELS 3 Xrotation Yrotation Zrotation
							JOINT RightForeArm
							{
								OFFSET 0.000000 -0.000004 17.672607
								CHANNELS 3 Xrotation Yrotation Zrotation
								JOINT RightForeArmRoll
								{
									OFFSET 0.000000 0.000000 6.808731
									CHANNELS 3 Xrotation Yrotation Zrotation
									JOINT RightHand
									{
										OFFSET 0.000000 0.000000 13.663605
										CHANNELS 3 Xrotation Yrotation Zrotation
										End Site
										{
											OFFSET 0.000000 0.000000 0.100006
										}
									}
								}
							}
						}
					}
				}
				JOINT LeftShoulder
				{
					OFFSET 3.573071 0.497524 9.163864
					CHANNELS 3 Xrotation Yrotation Zrotation
					JOINT LeftArm
					{
						OFFSET 0.000000 -0.000004 12.019203
						CHANNELS 3 Xrotation Yrotation Zrotation
						JOINT LeftArmRoll
						{
							OFFSET 0.000000 0.000000 6.067551
							CHANNELS 3 Xrotation Yrotation Zrotation
							JOINT LeftForeArm
							{
								OFFSET 0.000000 -0.000004 17.672607
								CHANNELS 3 Xrotation Yrotation Zrotation
								JOINT LeftForeArmRoll
								{
									OFFSET 0.000000 0.000000 6.808716
									CHANNELS 3 Xrotation Yrotation Zrotation
									JOINT LeftHand
									{
										OFFSET 0.000000 0.000000 13.663605
										CHANNELS 3 Xrotation Yrotation Zrotation
										End Site
										{
											OFFSET 0.000000 0.000000 0.100006
										}
									}
								}
							}
						}
					}
				}
			}
		}
	}
	JOINT RightUpLeg
	{
		OFFSET -5.277740 0.811859 -0.967796
		CHANNELS 3 Xrotation Yrotation Zrotation
		JOINT RightUpLegRoll
		{
			OFFSET 0.000000 0.000000 16.021400
			CHANNELS 3 Xrotation Yrotation Zrotation
			JOINT RightLeg
			{
				OFFSET 0.000000 0.000004 -19.840096
				CHANNELS 3 Xrotation Yrotation Zrotation
				JOINT RightLegRoll
				{
					OFFSET 0.000000 -0.000004 19.904999
					CHANNELS 3 Xrotation Yrotation Zrotation
					JOINT RightFoot
					{
						OFFSET 0.000000 -0.000004 16.567497
						CHANNELS 3 Xrotation Yrotation Zrotation
						JOINT RightToeBase
						{
							OFFSET 0.000000 -0.000004 13.849609
							CHANNELS 3 Xrotation Yrotation Zrotation
							End Site
							{
								OFFSET 0.005871 0.773117 6.707275
							}
						}
					}
				}
			}
		}
	}
	JOINT LeftUpLeg
	{
		OFFSET 5.277740 0.811859 -0.967796
		CHANNELS 3 Xrotation Yrotation Zrotation
		JOINT LeftUpLegRoll
		{
			OFFSET 0.000000 0.000000 16.021500
			CHANNELS 3 Xrotation Yrotation Zrotation
			JOINT LeftLeg
			{
				OFFSET 0.000000 -0.000004 19.839996
				CHANNELS 3 Xrotation Yrotation Zrotation
				JOINT LeftLegRoll
				{
					OFFSET 0.000000 -0.000004 20.089012
					CHANNELS 3 Xrotation Yrotation Zrotation
					JOINT LeftFoot
					{
						OFFSET 0.000000 -0.000004 16.383499
						CHANNELS 3 Xrotation Yrotation Zrotation
						JOINT LeftToeBase
						{
							OFFSET 0.000000 0.000000 13.849594
							CHANNELS 3 Xrotation Yrotation Zrotation
							End Site
							{
								OFFSET -0.026310 0.773115 6.707275
							}
						}
					}
				}
			}
		}
	}
}
MOTION
Frames: 7
Frame Time: 0.041667
50.031597 -1.857162 64.587303 36.061787 9.131373 5.529666 1.033964 -1.192665 0.155262 6.075594 -2.379673 0.349324 7.721253 -2.375412 0.374182 17.889331 3.260372 -3.661516 9.378074 -2.770133 -3.486725 181.101523 -112.843386 180.317691 117.861225 -56.674509 111.342383 0.000002 -0.000004 -0.000001 -0.027578 3.642489 -1.990627 -0.000002 0.000011 -3.011589 -5.000162 -7.999928 -0.000004 -7.767530 57.809874 9.027765 -47.228579 139.458379 68.109970 -0.000002 0.000001 0.000001 -0.032766 -3.644770 1.990659 -0.000002 -0.000002 3.011609 -5.000164 7.999920 -0.000003 -97.914013 -180.321338 -1.585309 179.999964 0.000005 -0.541988 113.729343 -0.538113 -3.348957 -0.000004 -0.000003 1.243940 70.549796 6.960612 1.836571 25.456962 -7.355619 0.000013 -99.486391 187.897480 7.341578 0.000010 0.000011 -0.546791 -64.771763 -6.282289 -1.129977 0.000000 0.000006 -1.168050 66.522183 -7.229682 -1.485726 25.456959 7.355615 -0.000010 
50.051697 -1.934692 64.664581 36.092567 9.114678 5.521447 1.037085 -1.190244 0.155028 6.082009 -2.374833 0.349010 7.727667 -2.370570 0.373887 17.867549 3.208653 -3.677309 9.352096 -2.744773 -3.504037 181.064367 -112.773431 180.267284 117.810491 -56.694235 111.294552 0.000005 -0.000003 -0.000002 -0.027576 3.642570 -1.990629 -0.000003 0.000011 -3.011591 -5.000162 -7.999928 -0.000002 -7.715969 57.878791 8.971455 -47.312608 139.411988 68.132940 -0.000001 0.000000 -0.000001 -0.032776 -3.644781 1.990657 -0.000002 -0.000001 3.011608 -5.000164 7.999919 -0.000005 -97.800195 -180.338755 -1.598334 179.999964 0.000005 -0.540991 113.844637 -0.539765 -3.345034 -0.000004 -0.000003 1.240699 70.546982 6.960190 1.837773 25.456962 -7.355620 0.000012 -99.357683 187.870268 7.349468 0.000011 0.000011 -0.546551 -64.654796 -6.270000 -1.121109 0.000000 0.000006 -1.162800 66.526432 -7.228418 -1.487681 25.456952 7.355616 -0.000010 
49.971298 -1.966736 64.716095 36.121869 9.101104 5.511381 1.040263 -1.188405 0.154800 6.088463 -2.371145 0.348687 7.734131 -2.366877 0.373653 17.846632 3.159298 -3.692247 9.326347 -2.721085 -3.520338 181.035298 -112.700027 180.225565 117.751710 -56.715172 111.241652 0.000004 -0.000003 -0.000002 -0.027574 3.642649 -1.990625 -0.000003 0.000010 -3.011594 -5.000162 -7.999929 -0.000004 -7.666750 57.950952 8.918138 -47.400946 139.363890 68.156634 -0.000002 -0.000000 0.000002 -0.032785 -3.644790 1.990656 -0.000003 -0.000002 3.011611 -5.000162 7.999920 -0.000003 -97.684894 -180.358617 -1.607760 179.999964 0.000004 -0.540991 113.959917 -0.541829 -3.339031 -0.000004 -0.000003 1.237401 70.543853 6.959767 1.838897 25.456959 -7.355620 0.000012 -99.225635 187.839546 7.359601 0.000011 0.000011 -0.546314 -64.536415 -6.258460 -1.112611 0.000000 0.000006 -1.157230 66.529806 -7.227017 -1.489569 25.456950 7.355613 -0.000010 
49.986893 -2.034420 64.790695 36.149654 9.090324 5.499604 1.043484 -1.187054 0.154571 6.094957 -2.368422 0.348352 7.740610 -2.364155 0.373469 17.826760 3.111600 -3.706426 9.300671 -2.698437 -3.535766 181.012936 -112.623583 180.191045 117.686086 -56.736742 111.184770 0.000003 -0.000004 -0.000000 -0.027576 3.642731 -1.990628 -0.000003 0.000010 -3.011591 -5.000163 -7.999929 -0.000001 -7.619046 58.026111 8.866838 -47.494004 139.313319 68.182090 0.000000 -0.000000 0.000003 -0.032797 -3.644791 1.990655 -0.000004 -0.000001 3.011612 -5.000165 7.999921 -0.000004 -97.568105 -180.380569 -1.615930 179.999964 0.000004 -0.539994 114.075395 -0.544692 -3.333845 -0.000005 -0.000003 1.234041 70.540397 6.959305 1.840234 25.456962 -7.355621 0.000013 -99.090711 187.805805 7.372802 0.000011 0.000011 -0.546083 -64.416709 -6.247608 -1.104704 0.000000 0.000006 -1.151390 66.532333 -7.225602 -1.491207 25.456953 7.355615 -0.000011 
50.039497 -2.123737 64.899284 36.175967 9.081680 5.486369 1.046743 -1.186103 0.154346 6.101485 -2.366493 0.348010 7.747128 -2.362226 0.373327 17.807821 3.064851 -3.719912 9.274892 -2.676222 -3.550454 180.995888 -112.544264 180.162167 117.614669 -56.758203 111.124767 0.000004 -0.000002 -0.000003 -0.027576 3.642811 -1.990626 -0.000002 0.000011 -3.011591 -5.000165 -7.999928 -0.000002 -7.572003 58.104030 8.816548 -47.591085 139.260918 68.208509 0.000001 -0.000000 -0.000001 -0.032809 -3.644801 1.990652 -0.000003 -0.000001 3.011612 -5.000162 7.999920 -0.000004 -97.449703 -180.404202 -1.622137 179.999964 0.000005 -0.539993 114.191242 -0.548373 -3.329477 -0.000004 -0.000003 1.230610 70.536532 6.958909 1.841407 25.456960 -7.355620 0.000013 -98.953014 187.769236 7.387823 0.000011 0.000011 -0.545861 -64.295856 -6.237299 -1.096924 0.000000 0.000005 -1.145360 66.534198 -7.224115 -1.492972 25.456957 7.355614 -0.000009 
50.049595 -2.192801 64.986191 36.200959 9.074824 5.471984 1.050025 -1.185441 0.154122 6.108029 -2.365172 0.347656 7.753678 -2.360902 0.373214 17.790008 3.018363 -3.732771 9.248872 -2.653816 -3.564525 180.982746 -112.462377 180.137401 117.535917 -56.779844 111.059176 0.000003 -0.000003 -0.000001 -0.027577 3.642890 -1.990625 -0.000000 0.000010 -3.011592 -5.000160 -7.999927 -0.000005 -7.524835 58.184537 8.766338 -47.691881 139.206523 68.235810 0.000000 -0.000001 -0.000000 -0.032816 -3.644811 1.990652 -0.000003 -0.000001 3.011609 -5.000164 7.999920 -0.000004 -97.329820 -180.429173 -1.627580 179.999964 0.000004 -0.539993 114.307690 -0.552508 -3.325010 -0.000005 -0.000003 1.227121 70.532229 6.958473 1.842702 25.456959 -7.355620 0.000013 -98.812941 187.730345 7.404611 0.000009 0.000011 -0.545650 -64.173985 -6.227323 -1.089434 0.000000 0.000006 -1.139160 66.535543 -7.222606 -1.494670 25.456955 7.355614 -0.000010 
50.014297 -2.249460 65.051392 36.224663 9.069179 5.456646 1.053326 -1.185000 0.153900 6.114579 -2.364259 0.347289 7.760218 -2.359992 0.373117 17.773390 2.971425 -3.745095 9.222400 -2.630609 -3.578136 180.972050 -112.378400 180.115176 117.452220 -56.800471 110.990560 0.000006 -0.000004 -0.000003 -0.027574 3.642960 -1.990627 -0.000001 0.000010 -3.011591 -5.000161 -7.999929 -0.000003 -7.476738 58.267579 8.715247 -47.796107 139.149996 68.264223 0.000002 -0.000000 0.000002 -0.032831 -3.644810 1.990656 -0.000002 -0.000001 3.011612 -5.000163 7.999921 -0.000002 -97.208229 -180.455073 -1.630344 179.999964 0.000004 -0.538995 114.424616 -0.557491 -3.321334 -0.000004 -0.000003 1.223559 70.527502 6.958032 1.843922 25.456964 -7.355619 0.000012 -98.670771 187.689514 7.422076 0.000009 0.000011 -0.545453 -64.051110 -6.217605 -1.082140 0.000000 0.000006 -1.132860 66.536677 -7.221072 -1.496176 25.456957 7.355614 -0.000009 
